<?xml version="1.0" encoding="utf-8"?>
<!-- Generator: Adobe Illustrator 16.0.0, SVG Export Plug-In . SVG Version: 6.00 Build 0)  -->
<!DOCTYPE svg PUBLIC "-//W3C//DTD SVG 1.1//EN" "http://www.w3.org/Graphics/SVG/1.1/DTD/svg11.dtd">
<svg xmlns="http://www.w3.org/2000/svg" xmlns:xlink="http://www.w3.org/1999/xlink" version="1.1" id="Layer_1" x="0px" y="0px" width="512" height="512" viewBox="0 0 512 512" enable-background="new 0 0 512 512" xml:space="preserve">
<g id="ice_cream">
	<g>
		<path fill="#46CEAD" d="M341.378,85.347c0,47.132-38.188,85.334-85.335,85.334c-47.124,0-85.327-38.203-85.327-85.334    s38.203-85.342,85.327-85.342C303.19,0.005,341.378,38.215,341.378,85.347z"/>
	</g>
	<g opacity="0.1">
		<path d="M256.012,82.198c-15.64-17.726-38.515-28.905-64.014-28.905c-5.328,0-10.562,0.5-15.625,1.438    c-3.656,9.5-5.656,19.82-5.656,30.616c0,47.132,38.203,85.334,85.327,85.334c47.147,0,85.335-38.203,85.335-85.334    c0-10.789-2-21.101-5.656-30.601c-5.094-0.953-10.344-1.453-15.719-1.453C294.503,53.293,271.636,64.472,256.012,82.198z"/>
	</g>
	<g>
		<path fill="#AC92EA" d="M405.345,149.299c0,47.132-38.218,85.342-85.342,85.342c-47.125,0-85.334-38.21-85.334-85.342    s38.209-85.334,85.334-85.334C367.127,63.965,405.345,102.167,405.345,149.299z"/>
	</g>
	<g opacity="0.1">
		<path d="M234.668,149.299c0,24.406,10.25,46.421,26.671,61.968c16.413-15.547,26.663-37.562,26.663-61.968    c0-24.398-10.25-46.413-26.663-61.968C244.918,102.886,234.668,124.901,234.668,149.299z"/>
	</g>
	<g>
		<path fill="#EC5564" d="M277.347,149.299c0,47.132-38.209,85.342-85.349,85.342c-47.125,0-85.342-38.21-85.342-85.342    s38.218-85.334,85.342-85.334C239.137,63.965,277.347,102.167,277.347,149.299z"/>
	</g>
	<g>
		<path fill="#EC5564" d="M277.347,149.299c0,47.132-38.209,85.342-85.349,85.342c-47.125,0-85.342-38.21-85.342-85.342    s38.218-85.334,85.342-85.334C239.137,63.965,277.347,102.167,277.347,149.299z"/>
	</g>
	<g opacity="0.2">
		<path fill="#FFFFFF" d="M191.998,63.965c1.796,0,3.578,0.062,5.328,0.171c-44.64,2.75-79.999,39.828-79.999,85.163    c0,45.343,35.359,82.42,79.999,85.17c-1.75,0.109-3.531,0.172-5.328,0.172c-47.125,0-85.342-38.21-85.342-85.342    S144.873,63.965,191.998,63.965z"/>
	</g>
	<g>
		<path fill="#FECD57" d="M256.012,511.995c-64.014,0-149.356-341.361-149.356-341.361h298.689    C405.345,170.634,320.003,511.995,256.012,511.995z"/>
	</g>
	<path fill="#F5BA45" d="M397.47,200.618l-50.937,50.937l-30.187-30.171l50.749-50.749H336.94l-35.688,35.664l-30.164-30.171   l5.477-5.492h-41.147l5.5,5.492l-30.171,30.171l-35.671-35.664h-30.171l50.749,50.749l-30.171,30.171l-50.937-50.937   c3.125,11.523,7.093,25.828,11.75,41.913l24.109,24.109l-13.046,13.047c2.297,7.499,4.703,15.187,7.187,22.983l20.938-20.938   l30.171,30.172l-30.171,30.171l-11.953-11.969c5.234,15.609,10.766,31.359,16.515,46.688l25.609,25.624l-11.093,11.094   c3.047,7.233,6.109,14.233,9.203,20.968l16.984-16.984l30.171,30.188l-26.468,26.469c4.093,6.719,8.203,12.734,12.281,17.875   l29.265-29.266l29.288,29.266c4.062-5.125,8.188-11.156,12.281-17.875l-26.477-26.469l30.164-30.188l17,16.984   c3.094-6.734,6.156-13.734,9.188-20.968l-11.094-11.094l25.625-25.624c5.749-15.328,11.28-31.078,16.499-46.688l-11.938,11.969   l-30.187-30.171l30.187-30.172l20.938,20.938c2.469-7.797,4.874-15.484,7.187-22.983l-13.062-13.047l24.124-24.109   C390.376,226.438,394.345,212.142,397.47,200.618z M255.996,191.212l30.194,30.171l-30.194,30.171l-30.171-30.171L255.996,191.212z    M256.012,281.718l30.179,30.188l-30.194,30.171l-30.171-30.171L256.012,281.718z M180.576,266.641l30.171-30.172l30.171,30.172   l-30.171,30.171L180.576,266.641z M180.576,357.154l30.171-30.156l30.171,30.156l-30.171,30.188L180.576,357.154z M255.996,432.59   l-30.171-30.171l30.171-30.171l30.163,30.171L255.996,432.59z M331.44,357.154l-30.188,30.188l-30.164-30.188l30.164-30.156   L331.44,357.154z M301.253,296.812l-30.164-30.171l30.164-30.172l30.188,30.172L301.253,296.812z"/>
</g>
</svg>
