<?xml version="1.0" encoding="iso-8859-1"?>
<!-- Generator: Adobe Illustrator 19.0.0, SVG Export Plug-In . SVG Version: 6.00 Build 0)  -->
<svg version="1.1" id="Layer_1" xmlns="http://www.w3.org/2000/svg" xmlns:xlink="http://www.w3.org/1999/xlink" x="0px" y="0px"
	 viewBox="0 0 460.065 460.065" style="enable-background:new 0 0 460.065 460.065;" xml:space="preserve">
<g id="XMLID_1051_">
	<path id="XMLID_1052_" style="fill:#FFB739;" d="M411.14,181.108C411.14,81.245,329.896,0,230.033,0l-40,181.108l40,198.957
		l86.73-30l0.135-10C373.033,309.267,411.14,249.529,411.14,181.108z"/>
	<path id="XMLID_1053_" style="fill:#FFD488;" d="M48.925,181.108C48.925,81.245,130.169,0,230.033,0v380.065l-87.27-30l0.405-10
		C87.033,309.267,48.925,249.529,48.925,181.108z"/>
	<path id="XMLID_1054_" style="fill:#FFFFFF;" d="M240.033,40v340.07h-66.735v-57.76l-15.56-8.55
		c-48.53-26.62-78.68-77.45-78.68-132.65C79.058,181.11,115.033,40,240.033,40z"/>
	<path id="XMLID_1055_" style="fill:#FFEAC3;" d="M230.033,30.003C146.837,30.15,79.057,97.88,79.057,181.11h30
		c0-66.69,54.319-120.96,120.975-121.107V380.07h56.735v-57.76l15.56-8.55c48.53-26.62,78.68-77.45,78.68-132.65
		C381.008,97.88,313.229,30.15,230.033,30.003z"/>
	<path id="XMLID_1056_" style="fill:#FFB739;" d="M288.53,166.55c-24.85,0-45,20.15-45,45v15h-13.497l-10,15l10,15h13.497v113.515
		h30V256.55h15c24.85,0,45-20.15,45-45S313.38,166.55,288.53,166.55z M288.53,226.55c-8.27,0-15-6.73-15-15s6.73-15,15-15
		s15,6.73,15,15S296.8,226.55,288.53,226.55z"/>
	<path id="XMLID_1059_" style="fill:#FFD488;" d="M230.033,226.55h-13.767v-15c0-24.85-20.15-45-45-45s-45,20.15-45,45
		s20.15,45,45,45h15v113.515h30V256.55h13.767V226.55z M171.265,226.55c-8.27,0-15-6.73-15-15s6.73-15,15-15s15,6.73,15,15
		S179.535,226.55,171.265,226.55z"/>
	<polygon id="XMLID_1062_" style="fill:#121923;" points="316.763,430.065 296.763,460.065 230.033,460.065 220.033,420.065 	"/>
	<polygon id="XMLID_1063_" style="fill:#466289;" points="316.763,390.065 316.763,430.065 230.033,430.065 220.033,380.065 	"/>
	<polygon id="XMLID_1064_" style="fill:#6B81A1;" points="316.763,350.065 316.763,390.065 220.033,390.065 230.033,350.065 	"/>
	<polygon id="XMLID_1065_" style="fill:#233145;" points="142.763,430.065 162.763,460.065 230.033,460.065 230.033,430.065 
		186.398,410.065 	"/>
	<polygon id="XMLID_1066_" style="fill:#6B81A1;" points="142.763,390.065 142.763,430.065 230.033,430.065 230.033,390.065 
		186.398,370.065 	"/>
	<rect id="XMLID_1067_" x="142.763" y="350.065" style="fill:#8799B3;" width="87.27" height="40"/>
</g>
<g>
</g>
<g>
</g>
<g>
</g>
<g>
</g>
<g>
</g>
<g>
</g>
<g>
</g>
<g>
</g>
<g>
</g>
<g>
</g>
<g>
</g>
<g>
</g>
<g>
</g>
<g>
</g>
<g>
</g>
</svg>
