<?xml version="1.0" encoding="iso-8859-1"?>
<!-- Generator: Adobe Illustrator 19.0.0, SVG Export Plug-In . SVG Version: 6.00 Build 0)  -->
<svg version="1.1" id="Layer_1" xmlns="http://www.w3.org/2000/svg" xmlns:xlink="http://www.w3.org/1999/xlink" x="0px" y="0px"
	 viewBox="0 0 512 512" style="enable-background:new 0 0 512 512;" xml:space="preserve">
<polygon style="fill:#FEE187;" points="326.26,165.986 154.139,441.028 256.008,441.028 326.447,166.283 "/>
<path style="fill:#FFC61B;" d="M509.926,433.804L338.007,159.088c-0.001-0.001-0.003-0.004-0.004-0.007l-0.185-0.297
	c-2.484-3.987-6.847-6.413-11.545-6.417c-0.004,0-0.01,0-0.014,0c-4.691,0-9.053,2.416-11.544,6.394L142.595,433.804
	c-2.627,4.197-2.769,9.49-0.369,13.821c2.4,4.333,6.962,7.02,11.913,7.02h101.869c6.218,0,11.648-4.212,13.192-10.237
	l62.551-243.981l142.045,226.98H311.829c-7.52,0-13.618,6.098-13.618,13.618s6.098,13.618,13.618,13.618h186.553
	c4.953,0,9.514-2.688,11.913-7.02C512.695,443.293,512.553,438.001,509.926,433.804z M245.441,427.409h-66.714l113.013-180.587
	L245.441,427.409z"/>
<polygon style="fill:#FEE187;" points="155.878,227.267 13.618,441.028 97.813,441.028 156.032,227.512 "/>
<path style="fill:#FFC61B;" d="M203.647,269.688l-36.612-50.199c-0.031-0.044-0.068-0.08-0.099-0.123
	c-2.51-3.511-6.53-5.657-10.875-5.714c-4.615-0.074-8.958,2.225-11.518,6.072L2.281,433.482c-2.781,4.178-3.038,9.55-0.667,13.975
	c2.371,4.426,6.983,7.188,12.004,7.188h84.195c6.142,0,11.522-4.111,13.139-10.035l50.767-186.188l19.922,27.315
	c2.666,3.656,6.81,5.594,11.014,5.594c2.782,0,5.592-0.851,8.013-2.617C206.745,284.284,208.078,275.764,203.647,269.688z
	 M87.412,427.409H39.039l81.946-123.132L87.412,427.409z"/>
<circle style="fill:#FEE187;" cx="190.531" cy="118.641" r="47.663"/>
<path style="fill:#FFC61B;" d="M190.534,179.919c-33.791,0-61.281-27.491-61.281-61.281s27.491-61.281,61.281-61.281
	s61.281,27.491,61.281,61.281S224.324,179.919,190.534,179.919z M190.534,84.592c-18.773,0-34.045,15.273-34.045,34.045
	s15.273,34.045,34.045,34.045s34.045-15.273,34.045-34.045S209.306,84.592,190.534,84.592z"/>
<g>
</g>
<g>
</g>
<g>
</g>
<g>
</g>
<g>
</g>
<g>
</g>
<g>
</g>
<g>
</g>
<g>
</g>
<g>
</g>
<g>
</g>
<g>
</g>
<g>
</g>
<g>
</g>
<g>
</g>
</svg>
